<?xml version="1.0" encoding="UTF-8"?>
<svg width="144px" height="125px" viewBox="0 0 144 125" version="1.1" xmlns="http://www.w3.org/2000/svg" xmlns:xlink="http://www.w3.org/1999/xlink">
    <!-- Generator: Sketch 46.2 (44496) - http://www.bohemiancoding.com/sketch -->
    <title>Shape</title>
    <desc>Created with Sketch.</desc>
    <defs></defs>
    <g id="Page-1" stroke="none" stroke-width="1" fill="none" fill-rule="evenodd">
        <path d="M132.939984,7.80845329 L132.46435,6.60205836 C132.450427,6.56743941 132.42371,6.53884116 132.389467,6.52341315 L131.20866,5.98719581 C121.488263,1.5721516 107.77728,0.482783749 95.6463503,0 L81.9831563,0 C81.8288762,0 81.7818396,0.208466248 81.9206917,0.275070086 L109.986119,13.7301741 C110.144538,13.805809 110.056862,14.0413683 109.886778,13.9969658 C97.2647859,10.7006403 84.5137258,9.03215769 71.9225902,9.03215769 C59.3720942,9.03215769 46.6624263,10.6904804 34.0791928,13.9657335 C33.9079796,14.010136 33.8210559,13.7719427 33.981733,13.697813 L63.0319186,0.276575257 C63.1726522,0.211476591 63.1267444,0.000752585735 62.9713355,0.000752585735 L48.1992064,0.000752585735 C36.0686532,0.483536335 22.3569174,1.57290419 12.6368964,5.9879484 L11.4560894,6.52416573 C11.4218467,6.53959374 11.3947536,6.56781571 11.3812071,6.60281094 L10.9055729,7.80920588 C0.957894648,33.0155599 -1.86881737,75.8072085 1.14566479,102.614689 L1.30370779,104.020519 L2.42205019,104.887874 C17.962193,116.938277 38.7414615,123.133939 51.8134994,124.777962 L53.5038069,124.990568 C54.0531945,125.059806 54.5781231,124.742214 54.7722902,124.223683 L63.2802719,101.49296 C63.5455584,100.7844 63.0940069,100.010742 62.3466893,99.8933386 L59.7359694,99.4831794 C50.6323161,98.0528902 37.7341254,94.2613633 26.83405,84.3761496 C26.601501,84.1650493 26.8257715,83.7857461 27.1200325,83.8948711 C28.005826,84.2241273 28.9826822,84.6056883 29.9885131,84.998538 C32.4532313,85.9614715 35.0022392,86.9571424 36.6654537,87.3522499 C48.3546153,90.131549 60.208217,91.5411421 71.9218376,91.5411421 L71.9218376,91.3326759 L71.9462967,91.3326759 L71.9478018,91.5411421 C83.637716,91.5411421 95.4909414,90.1319253 107.178974,87.3522499 C108.842941,86.9567661 111.391949,85.9614715 113.857044,84.9981617 C114.862122,84.605312 115.838602,84.223751 116.724019,83.8948711 C117.01828,83.7857461 117.242551,84.1654256 117.010002,84.3761496 C106.146426,94.2177133 93.2320553,97.9994566 84.1080821,99.4286169 L81.4981148,99.837271 C80.7507972,99.9542981 80.2984931,100.727204 80.5634033,101.435763 L89.0728902,124.222554 C89.266681,124.741462 89.7919859,125.059429 90.3413735,124.990191 L92.0331862,124.777586 C105.104472,123.133562 125.882235,116.9379 141.422754,104.887498 L142.541096,104.020142 L142.699139,102.614312 C145.713998,75.8072085 142.887286,33.0151836 132.939984,7.80845329 Z M44.1536818,69.6943308 C33.5862492,70.6365682 24.7700836,61.8211552 25.711192,51.2537226 C26.4329218,43.153266 32.9555823,36.6298529 41.0564152,35.9073706 C51.6238478,34.9651332 60.4400134,43.7805462 59.4989049,54.3479788 C58.7767989,62.4484354 52.2541383,68.9718485 44.1536818,69.6943308 Z M102.789894,69.6943308 C92.2224615,70.6365682 83.4062959,61.8211552 84.3474044,51.2537226 C85.0691341,43.153266 91.5917947,36.6298529 99.6926275,35.9073706 C110.259684,34.9651332 119.076226,43.7805462 118.135117,54.3479788 C117.413011,62.4484354 110.890351,68.9718485 102.789894,69.6943308 Z" id="Shape" fill="#FFFFFF" fill-rule="nonzero"></path>
    </g>
</svg>